<svg width="32" height="32" viewBox="0 0 32 32" fill="none" xmlns="http://www.w3.org/2000/svg">
<path opacity="0.1" d="M0 16C0 7.16344 7.16344 0 16 0C24.8366 0 32 7.16344 32 16C32 24.8366 24.8366 32 16 32C7.16344 32 0 24.8366 0 16Z" fill="white"/>
<circle cx="16" cy="16" r="16" fill="url(#paint0_linear_948_3803)"/>
<circle cx="16" cy="16" r="16" fill="url(#paint1_linear_948_3803)"/>
<path fill-rule="evenodd" clip-rule="evenodd" d="M20.4677 21.8471C21.8888 21.8471 23.0408 20.6951 23.0408 19.2739C23.0408 17.8529 21.8888 16.7008 20.4677 16.7008C19.0466 16.7008 17.8945 17.8529 17.8945 19.2739C17.8945 20.6951 19.0466 21.8471 20.4677 21.8471ZM23.8954 19.2739C23.8954 21.167 22.3607 22.7016 20.4677 22.7016C18.5746 22.7016 17.04 21.167 17.04 19.2739C17.04 17.3809 18.5746 15.8463 20.4677 15.8463C22.3607 15.8463 23.8954 17.3809 23.8954 19.2739Z" fill="white"/>
<path fill-rule="evenodd" clip-rule="evenodd" d="M18.3567 21.0466C18.5275 21.2563 18.4959 21.5646 18.2862 21.7355C16.5064 23.1853 14.6528 24.197 13.0141 24.639C11.3986 25.0748 9.85575 24.986 8.87938 24.0096C7.79541 22.9257 7.8022 21.1473 8.41946 19.3175C8.5059 19.0613 8.78371 18.9236 9.03995 19.0101C9.2962 19.0965 9.43385 19.3743 9.34741 19.6306C8.76155 21.3672 8.90083 22.6461 9.57187 23.3171C10.1745 23.9198 11.2649 24.0966 12.7591 23.6935C14.2301 23.2967 15.9626 22.3651 17.6678 20.9762C17.8774 20.8054 18.1859 20.8369 18.3567 21.0466Z" fill="white"/>
<path fill-rule="evenodd" clip-rule="evenodd" d="M14.9396 11.4591C14.7753 11.2443 14.8163 10.937 15.031 10.7727C16.7388 9.46628 18.4932 8.56687 20.0417 8.19349C21.5717 7.82458 23.0229 7.94651 23.9557 8.87931C25.0396 9.96327 25.0328 11.7417 24.4156 13.5714C24.3292 13.8277 24.0513 13.9653 23.7951 13.8789C23.5388 13.7924 23.4012 13.5146 23.4876 13.2584C24.0735 11.5217 23.9342 10.2428 23.2632 9.5718C22.6879 8.9965 21.6693 8.80843 20.2712 9.14554C18.8917 9.47819 17.2597 10.3008 15.6261 11.5505C15.4113 11.7148 15.104 11.6739 14.9396 11.4591Z" fill="white"/>
<path fill-rule="evenodd" clip-rule="evenodd" d="M16.5516 13.3982C16.5516 15.2912 15.017 16.8258 13.1239 16.8258C11.2309 16.8258 9.69629 15.2912 9.69629 13.3982C9.69629 11.5052 11.2309 9.97058 13.1239 9.97058C15.017 9.97058 16.5516 11.5052 16.5516 13.3982ZM12.7811 11.6842H13.4666V13.0551H14.8371V13.7406H13.4666V15.1118H12.7811V13.7406H11.4095V13.0551H12.7811V11.6842Z" fill="white"/>
<path d="M21.6924 19.568V18.8824H19.2441V19.568H21.6924Z" fill="white"/>
<defs>
<linearGradient id="paint0_linear_948_3803" x1="31.4" y1="-3.08087e-06" x2="-1.93422" y2="6.13602" gradientUnits="userSpaceOnUse">
<stop offset="0.125" stop-color="#31B047"/>
<stop offset="1" stop-color="#F8F035"/>
</linearGradient>
<linearGradient id="paint1_linear_948_3803" x1="16" y1="32" x2="16" y2="16" gradientUnits="userSpaceOnUse">
<stop offset="0.0208333" stop-color="#31B047"/>
<stop offset="1" stop-color="#F0CB0B" stop-opacity="0.4"/>
</linearGradient>
</defs>
</svg>
