<svg width="14" height="14" viewBox="0 0 14 14" fill="#00000050" xmlns="http://www.w3.org/2000/svg">
<path fill-rule="evenodd" clip-rule="evenodd" d="M3.99902 1.75H10.999C11.6894 1.75 12.249 2.30964 12.249 3V10H13.749V3C13.749 1.48122 12.5178 0.25 10.999 0.25H3.99902V1.75ZM2.49902 3.25C1.25638 3.25 0.249023 4.25736 0.249023 5.5V11.5C0.249023 12.7426 1.25638 13.75 2.49902 13.75H8.49902C9.74166 13.75 10.749 12.7426 10.749 11.5V5.5C10.749 4.25736 9.74166 3.25 8.49902 3.25H2.49902ZM1.74902 5.5C1.74902 5.08579 2.08481 4.75 2.49902 4.75H8.49902C8.91324 4.75 9.24902 5.08579 9.24902 5.5V11.5C9.24902 11.9142 8.91324 12.25 8.49902 12.25H2.49902C2.08481 12.25 1.74902 11.9142 1.74902 11.5V5.5Z" />
</svg>
